<svg width="164" height="6" viewBox="0 0 164 6" fill="none" xmlns="http://www.w3.org/2000/svg">
<path d="M5.20117 3.17121C5.20117 3.60831 5.09 4.01327 4.86542 4.3818C4.64085 4.75034 4.33846 5.04602 3.95379 5.26029C3.56913 5.47455 3.15111 5.58382 2.69752 5.58382C2.24393 5.58382 1.82591 5.47669 1.44125 5.26029C1.05658 5.04388 0.754188 4.75248 0.531838 4.3818C0.309489 4.01113 0.196091 3.60831 0.196091 3.17121C0.196091 2.73411 0.307265 2.3313 0.531838 1.96062C0.756411 1.58994 1.05881 1.29854 1.44125 1.08428C1.82369 0.870017 2.24393 0.760742 2.69752 0.760742C3.15111 0.760742 3.56913 0.870017 3.95379 1.08428C4.33846 1.29854 4.64308 1.59209 4.86542 1.96062C5.08777 2.32915 5.20117 2.73411 5.20117 3.17121Z" fill="#060B18"/>
<path d="M19.6299 3.17121C19.6299 3.60831 19.5187 4.01327 19.2941 4.3818C19.0696 4.75034 18.7672 5.04602 18.3825 5.26029C17.9978 5.47455 17.5798 5.58382 17.1262 5.58382C16.6726 5.58382 16.2546 5.47669 15.87 5.26029C15.4853 5.04388 15.1829 4.75248 14.9605 4.3818C14.7382 4.01113 14.6248 3.60831 14.6248 3.17121C14.6248 2.73411 14.736 2.3313 14.9605 1.96062C15.1851 1.58994 15.4875 1.29854 15.87 1.08428C16.2524 0.870017 16.6726 0.760742 17.1262 0.760742C17.5798 0.760742 17.9978 0.870017 18.3825 1.08428C18.7672 1.29854 19.0718 1.59209 19.2941 1.96062C19.5165 2.32915 19.6299 2.73411 19.6299 3.17121Z" fill="#060B18"/>
<path d="M34.0596 3.17121C34.0596 3.60831 33.9484 4.01327 33.7238 4.3818C33.4993 4.75034 33.1969 5.04602 32.8122 5.26029C32.4275 5.47455 32.0095 5.58382 31.5559 5.58382C31.1023 5.58382 30.6843 5.47669 30.2997 5.26029C29.915 5.04388 29.6126 4.75248 29.3902 4.3818C29.1679 4.01113 29.0545 3.60831 29.0545 3.17121C29.0545 2.73411 29.1657 2.3313 29.3902 1.96062C29.6148 1.58994 29.9172 1.29854 30.2997 1.08428C30.6821 0.870017 31.1023 0.760742 31.5559 0.760742C32.0095 0.760742 32.4275 0.870017 32.8122 1.08428C33.1969 1.29854 33.5015 1.59209 33.7238 1.96062C33.9462 2.32915 34.0596 2.73411 34.0596 3.17121Z" fill="#060B18"/>
<path d="M48.4883 3.17121C48.4883 3.60831 48.3771 4.01327 48.1525 4.3818C47.928 4.75034 47.6256 5.04602 47.2409 5.26029C46.8562 5.47455 46.4382 5.58382 45.9846 5.58382C45.531 5.58382 45.113 5.47669 44.7284 5.26029C44.3437 5.04388 44.0413 4.75248 43.819 4.3818C43.5966 4.01113 43.4832 3.60831 43.4832 3.17121C43.4832 2.73411 43.5944 2.3313 43.819 1.96062C44.0435 1.58994 44.3459 1.29854 44.7284 1.08428C45.1108 0.870017 45.531 0.760742 45.9846 0.760742C46.4382 0.760742 46.8562 0.870017 47.2409 1.08428C47.6256 1.29854 47.9302 1.59209 48.1525 1.96062C48.3749 2.32915 48.4883 2.73411 48.4883 3.17121Z" fill="#060B18"/>
<path d="M62.917 3.17121C62.917 3.60831 62.8058 4.01327 62.5812 4.3818C62.3567 4.75034 62.0543 5.04602 61.6696 5.26029C61.2849 5.47455 60.8669 5.58382 60.4133 5.58382C59.9597 5.58382 59.5417 5.47669 59.1571 5.26029C58.7724 5.04388 58.47 4.75248 58.2476 4.3818C58.0253 4.01113 57.9119 3.60831 57.9119 3.17121C57.9119 2.73411 58.0231 2.3313 58.2476 1.96062C58.4722 1.58994 58.7746 1.29854 59.1571 1.08428C59.5395 0.870017 59.9597 0.760742 60.4133 0.760742C60.8669 0.760742 61.2849 0.870017 61.6696 1.08428C62.0543 1.29854 62.3589 1.59209 62.5812 1.96062C62.8036 2.32915 62.917 2.73411 62.917 3.17121Z" fill="#060B18"/>
<path d="M77.3457 3.17121C77.3457 3.60831 77.2345 4.01327 77.01 4.3818C76.7854 4.75034 76.483 5.04602 76.0983 5.26029C75.7137 5.47455 75.2956 5.58382 74.842 5.58382C74.3884 5.58382 73.9704 5.47669 73.5858 5.26029C73.2011 5.04388 72.8987 4.75248 72.6764 4.3818C72.454 4.01113 72.3406 3.60831 72.3406 3.17121C72.3406 2.73411 72.4518 2.3313 72.6764 1.96062C72.9009 1.58994 73.2033 1.29854 73.5858 1.08428C73.9682 0.870017 74.3884 0.760742 74.842 0.760742C75.2956 0.760742 75.7137 0.870017 76.0983 1.08428C76.483 1.29854 76.7876 1.59209 77.01 1.96062C77.2323 2.32915 77.3457 2.73411 77.3457 3.17121Z" fill="#060B18"/>
<path d="M91.7744 3.17121C91.7744 3.60831 91.6632 4.01327 91.4387 4.3818C91.2141 4.75034 90.9117 5.04602 90.527 5.26029C90.1424 5.47455 89.7244 5.58382 89.2708 5.58382C88.8172 5.58382 88.3992 5.47669 88.0145 5.26029C87.6298 5.04388 87.3274 4.75248 87.1051 4.3818C86.8827 4.01113 86.7693 3.60831 86.7693 3.17121C86.7693 2.73411 86.8805 2.3313 87.1051 1.96062C87.3297 1.58994 87.6321 1.29854 88.0145 1.08428C88.3969 0.870017 88.8172 0.760742 89.2708 0.760742C89.7244 0.760742 90.1424 0.870017 90.527 1.08428C90.9117 1.29854 91.2163 1.59209 91.4387 1.96062C91.661 2.32915 91.7744 2.73411 91.7744 3.17121Z" fill="#060B18"/>
<path d="M106.203 3.17121C106.203 3.60831 106.092 4.01327 105.867 4.3818C105.643 4.75034 105.34 5.04602 104.956 5.26029C104.571 5.47455 104.153 5.58382 103.699 5.58382C103.246 5.58382 102.828 5.47669 102.443 5.26029C102.059 5.04388 101.756 4.75248 101.534 4.3818C101.311 4.01113 101.198 3.60831 101.198 3.17121C101.198 2.73411 101.309 2.3313 101.534 1.96062C101.758 1.58994 102.061 1.29854 102.443 1.08428C102.826 0.870017 103.246 0.760742 103.699 0.760742C104.153 0.760742 104.571 0.870017 104.956 1.08428C105.34 1.29854 105.645 1.59209 105.867 1.96062C106.09 2.32915 106.203 2.73411 106.203 3.17121Z" fill="#060B18"/>
<path d="M120.633 3.17121C120.633 3.60831 120.522 4.01327 120.297 4.3818C120.072 4.75034 119.77 5.04602 119.385 5.26029C119.001 5.47455 118.583 5.58382 118.129 5.58382C117.676 5.58382 117.258 5.47669 116.873 5.26029C116.488 5.04388 116.186 4.75248 115.963 4.3818C115.741 4.01113 115.628 3.60831 115.628 3.17121C115.628 2.73411 115.739 2.3313 115.963 1.96062C116.188 1.58994 116.49 1.29854 116.873 1.08428C117.255 0.870017 117.676 0.760742 118.129 0.760742C118.583 0.760742 119.001 0.870017 119.385 1.08428C119.77 1.29854 120.075 1.59209 120.297 1.96062C120.519 2.32915 120.633 2.73411 120.633 3.17121Z" fill="#060B18"/>
<path d="M135.062 3.17121C135.062 3.60831 134.95 4.01327 134.726 4.3818C134.501 4.75034 134.199 5.04602 133.814 5.26029C133.429 5.47455 133.011 5.58382 132.558 5.58382C132.104 5.58382 131.686 5.47669 131.302 5.26029C130.917 5.04388 130.615 4.75248 130.392 4.3818C130.17 4.01113 130.056 3.60831 130.056 3.17121C130.056 2.73411 130.168 2.3313 130.392 1.96062C130.617 1.58994 130.919 1.29854 131.302 1.08428C131.684 0.870017 132.104 0.760742 132.558 0.760742C133.011 0.760742 133.429 0.870017 133.814 1.08428C134.199 1.29854 134.503 1.59209 134.726 1.96062C134.948 2.32915 135.062 2.73411 135.062 3.17121Z" fill="#060B18"/>
<path d="M149.49 3.17121C149.49 3.60831 149.379 4.01327 149.154 4.3818C148.93 4.75034 148.628 5.04602 148.243 5.26029C147.858 5.47455 147.44 5.58382 146.987 5.58382C146.533 5.58382 146.115 5.47669 145.73 5.26029C145.346 5.04388 145.043 4.75248 144.821 4.3818C144.599 4.01113 144.485 3.60831 144.485 3.17121C144.485 2.73411 144.596 2.3313 144.821 1.96062C145.045 1.58994 145.348 1.29854 145.73 1.08428C146.113 0.870017 146.533 0.760742 146.987 0.760742C147.44 0.760742 147.858 0.870017 148.243 1.08428C148.628 1.29854 148.932 1.59209 149.154 1.96062C149.377 2.32915 149.49 2.73411 149.49 3.17121Z" fill="#060B18"/>
<path d="M163.919 3.17121C163.919 3.60831 163.808 4.01327 163.583 4.3818C163.359 4.75034 163.056 5.04602 162.672 5.26029C162.287 5.47455 161.869 5.58382 161.415 5.58382C160.962 5.58382 160.544 5.47669 160.159 5.26029C159.774 5.04388 159.472 4.75248 159.25 4.3818C159.027 4.01113 158.914 3.60831 158.914 3.17121C158.914 2.73411 159.025 2.3313 159.25 1.96062C159.474 1.58994 159.777 1.29854 160.159 1.08428C160.541 0.870017 160.962 0.760742 161.415 0.760742C161.869 0.760742 162.287 0.870017 162.672 1.08428C163.056 1.29854 163.361 1.59209 163.583 1.96062C163.806 2.32915 163.919 2.73411 163.919 3.17121Z" fill="#060B18"/>
</svg>
