<svg width="634" height="93" viewBox="0 0 634 93" fill="none" xmlns="http://www.w3.org/2000/svg">
<path d="M95.8 91L95.672 1.39999H85.176L48.312 64.376L10.936 1.39999H0.440001V91H12.728V26.104L45.112 80.12H51L83.384 25.72L83.512 91H95.8ZM122.69 91H135.49V1.39999H122.69V91ZM188.427 92.024C212.107 92.024 223.115 80.248 223.115 66.552C223.115 33.656 168.843 47.352 168.843 25.464C168.843 17.656 175.371 11.256 190.603 11.256C198.539 11.256 207.371 13.56 215.179 18.552L219.403 8.312C211.979 3.19199 201.099 0.375999 190.603 0.375999C167.051 0.375999 156.299 12.152 156.299 25.976C156.299 59.256 210.571 45.432 210.571 67.32C210.571 75.128 203.915 81.144 188.427 81.144C176.907 81.144 165.515 76.792 158.859 70.776L154.123 80.76C161.291 87.416 174.731 92.024 188.427 92.024ZM267.927 92.024C291.607 92.024 302.615 80.248 302.615 66.552C302.615 33.656 248.343 47.352 248.343 25.464C248.343 17.656 254.871 11.256 270.103 11.256C278.039 11.256 286.871 13.56 294.679 18.552L298.903 8.312C291.479 3.19199 280.599 0.375999 270.103 0.375999C246.551 0.375999 235.799 12.152 235.799 25.976C235.799 59.256 290.071 45.432 290.071 67.32C290.071 75.128 283.415 81.144 267.927 81.144C256.407 81.144 245.015 76.792 238.359 70.776L233.623 80.76C240.791 87.416 254.231 92.024 267.927 92.024ZM321.315 91H334.115V1.39999H321.315V91ZM401.388 92.024C428.652 92.024 448.876 72.568 448.876 46.2C448.876 19.832 428.652 0.375999 401.388 0.375999C373.868 0.375999 353.644 19.96 353.644 46.2C353.644 72.44 373.868 92.024 401.388 92.024ZM401.388 80.632C381.292 80.632 366.444 66.04 366.444 46.2C366.444 26.36 381.292 11.768 401.388 11.768C421.228 11.768 436.076 26.36 436.076 46.2C436.076 66.04 421.228 80.632 401.388 80.632ZM532.696 1.39999V68.216L478.936 1.39999H468.44V91H481.24V24.184L535 91H545.496V1.39999H532.696ZM598.427 92.024C622.107 92.024 633.115 80.248 633.115 66.552C633.115 33.656 578.843 47.352 578.843 25.464C578.843 17.656 585.371 11.256 600.603 11.256C608.539 11.256 617.371 13.56 625.179 18.552L629.403 8.312C621.979 3.19199 611.099 0.375999 600.603 0.375999C577.051 0.375999 566.299 12.152 566.299 25.976C566.299 59.256 620.571 45.432 620.571 67.32C620.571 75.128 613.915 81.144 598.427 81.144C586.907 81.144 575.515 76.792 568.859 70.776L564.123 80.76C571.291 87.416 584.731 92.024 598.427 92.024Z" fill="#9EB9C4"/>
</svg>
