<svg width="84" height="24" viewBox="0 0 84 24" fill="none" xmlns="http://www.w3.org/2000/svg">
<path d="M15.205 17.3053C15.4655 18.2905 15.8858 18.6715 16.6286 18.6715C17.3987 18.6715 17.8025 18.2089 17.8025 17.3053V0.528915H22.6263V17.3053C22.6263 19.67 22.3195 20.6946 21.1205 21.8939C20.2564 22.7582 18.6625 23.4263 16.65 23.4263C15.024 23.4263 13.4682 22.8881 12.4759 21.8941C11.606 21.0225 11.1282 20.1274 10.3814 17.3051L7.42143 6.12103C7.16077 5.13576 6.74061 4.75494 5.9978 4.75494C5.22756 4.75494 4.82376 5.21741 4.82376 6.12103V22.8975H0V6.12103C0 3.75645 0.30694 2.73168 1.50594 1.53236C2.36973 0.668416 3.96377 0 5.97648 0C7.60242 0 9.15827 0.538336 10.1505 1.5322C11.0204 2.40375 11.4983 3.29894 12.245 6.1212L15.205 17.3053Z" fill="white"/>
<path d="M79.0138 22.8975L73.443 5.4703C73.3815 5.27791 73.3235 5.11461 73.2342 5.00568C73.0812 4.81941 72.8694 4.72156 72.5845 4.72156C72.2997 4.72156 72.088 4.81941 71.9347 5.00568C71.8456 5.11444 71.7875 5.27774 71.7261 5.4703L66.1554 22.8975H61.1692L67.2543 3.86042C67.5713 2.8687 68.0245 2.02674 68.5995 1.46575C69.5865 0.503626 70.7494 0 72.5846 0C74.4198 0 75.583 0.503626 76.5696 1.46559C77.1446 2.02674 77.5978 2.86854 77.915 3.86025L83.9999 22.8974H79.0138V22.8975Z" fill="white"/>
<path d="M54.3595 22.8975C57.5198 22.8975 59.0613 22.2262 60.2791 21.0151C61.6267 19.6755 62.2713 18.2097 62.2713 16.0213C62.2713 14.0876 61.5634 12.2966 60.4856 11.2249C59.0763 9.82343 57.3259 9.38179 54.4717 9.38179L50.4739 9.38163C48.9463 9.38163 48.3376 9.197 47.8559 8.72379C47.5252 8.39917 47.3701 7.91637 47.3701 7.34729C47.3701 6.75903 47.5118 6.17805 47.9161 5.7812C48.2749 5.42898 48.764 5.26733 49.7038 5.26733H61.258V0.528915H50.5863C47.426 0.528915 45.8847 1.20047 44.6667 2.41136C43.3193 3.751 42.6745 5.21659 42.6745 7.40497C42.6745 9.33898 43.3824 11.1299 44.4602 12.2014C45.8697 13.6029 47.6199 14.0447 50.4741 14.0447L54.4721 14.045C55.9997 14.045 56.6084 14.2293 57.0901 14.7027C57.4208 15.0275 57.5758 15.5101 57.5758 16.0792C57.5758 16.6674 57.4342 17.2484 57.0301 17.6453C56.6711 17.9975 56.182 18.1591 55.2421 18.1591H43.3259L38.7555 3.86042C38.4385 2.8687 37.9853 2.02674 37.4102 1.46575C36.4233 0.503626 35.2603 0 33.4251 0C31.5899 0 30.4268 0.503626 29.4404 1.46559C28.8652 2.02674 28.4121 2.86854 28.0951 3.86025L22.01 22.8974H26.9961L32.5669 5.47014C32.6284 5.27774 32.6865 5.11444 32.7757 5.00552C32.9288 4.81924 33.1407 4.72139 33.4255 4.72139C33.7102 4.72139 33.922 4.81924 34.0752 5.00552C34.1645 5.11427 34.2225 5.27758 34.2838 5.47014L39.8547 22.8974H54.3595V22.8975Z" fill="white"/>
</svg>
