<svg width="112" height="92" viewBox="0 0 112 92" fill="none" xmlns="http://www.w3.org/2000/svg">
<path d="M21.7797 91.3999C26.0464 91.3999 29.7797 90.3333 32.9797 88.2C36.1797 86.0666 38.713 83.4 40.5797 80.2C42.4464 76.9999 43.3797 73.5333 43.3797 69.7999C43.3797 64.4666 41.6464 59.6666 38.1797 55.4C34.713 50.8666 30.313 48.4666 24.9797 48.2C25.513 40.9999 28.0464 34.9999 32.5797 30.1999C37.113 25.1333 42.5797 20.3333 48.9797 15.7999L40.5797 0.199951C33.3797 3.93328 26.5797 9.39995 20.1797 16.6C14.0464 23.5333 9.11302 31.3999 5.37968 40.1999C1.91302 48.9999 0.179688 57.6666 0.179688 66.1999C0.179688 73.6666 2.17969 79.7999 6.17969 84.5999C10.1797 89.1333 15.3797 91.3999 21.7797 91.3999ZM84.1797 91.3999C88.1797 91.3999 91.7797 90.3333 94.9797 88.2C98.4464 86.0666 101.113 83.4 102.98 80.2C105.113 76.9999 106.18 73.5333 106.18 69.7999C106.18 66.3333 105.246 62.9999 103.38 59.7999C101.78 56.5999 99.6464 53.9333 96.9797 51.7999C94.313 49.6666 91.2464 48.4666 87.7797 48.2C88.5797 40.9999 91.113 34.9999 95.3797 30.1999C99.6464 25.1333 105.113 20.3333 111.78 15.7999L103.38 0.199951C95.913 3.93328 88.9797 9.39995 82.5797 16.6C76.4464 23.5333 71.6464 31.3999 68.1797 40.1999C64.713 48.9999 62.9797 57.6666 62.9797 66.1999C62.9797 73.6666 64.9797 79.7999 68.9797 84.5999C73.2464 89.1333 78.313 91.3999 84.1797 91.3999Z" fill="#F8F9FA"/>
</svg>
