<svg width="455" height="127" viewBox="0 0 455 127" fill="none" xmlns="http://www.w3.org/2000/svg">
<path d="M82.3604 93.8163C83.7714 99.1577 86.0482 101.223 90.0717 101.223C94.243 101.223 96.4302 98.7151 96.4302 93.8163V2.86738H122.559V93.8163C122.559 106.636 120.897 112.191 114.403 118.693C109.722 123.378 101.089 127 90.1872 127C81.3801 127 72.9525 124.082 67.578 118.694C62.866 113.969 60.2776 109.116 56.2326 93.8154L40.1994 33.1837C38.7875 27.8423 36.5116 25.7778 32.4881 25.7778C28.316 25.7778 26.1287 28.2849 26.1287 33.1837V124.134H0V33.1837C0 20.3647 1.66259 14.8091 8.15717 8.30735C12.8361 3.62366 21.4704 0 32.3726 0C41.1798 0 49.6073 2.91846 54.9819 8.30645C59.6939 13.0314 62.2822 17.8844 66.3272 33.1846L82.3604 93.8163Z" fill="#F8F9FA"/>
<path d="M427.993 124.134L397.817 29.6559C397.484 28.6129 397.17 27.7276 396.686 27.1371C395.857 26.1272 394.71 25.5968 393.167 25.5968C391.624 25.5968 390.477 26.1272 389.647 27.1371C389.165 27.7267 388.85 28.612 388.517 29.6559L358.343 124.134H331.334L364.295 20.9283C366.012 15.552 368.467 10.9875 371.582 7.94624C376.928 2.73029 383.227 0 393.168 0C403.108 0 409.409 2.73029 414.753 7.94534C417.867 10.9875 420.322 15.5511 422.041 20.9274L455 124.133H427.993V124.134Z" fill="#F8F9FA"/>
<path d="M294.448 124.134C311.566 124.134 319.916 120.494 326.513 113.928C333.812 106.666 337.304 98.7195 337.304 86.8557C337.304 76.3728 333.469 66.6631 327.631 60.8531C319.998 53.2554 310.516 50.8611 295.056 50.8611L273.401 50.8602C265.127 50.8602 261.829 49.8593 259.22 47.2939C257.429 45.5341 256.589 42.9167 256.589 39.8315C256.589 36.6425 257.356 33.4928 259.546 31.3414C261.49 29.4319 264.139 28.5556 269.23 28.5556H331.815V2.86738H274.01C256.892 2.86738 248.543 6.50806 241.945 13.0726C234.647 20.3351 231.154 28.2805 231.154 40.1443C231.154 50.629 234.989 60.3378 240.827 66.147C248.461 73.7446 257.942 76.1398 273.402 76.1398L295.058 76.1416C303.332 76.1416 306.63 77.1407 309.239 79.707C311.03 81.4678 311.87 84.0842 311.87 87.1694C311.87 90.3584 311.103 93.5081 308.914 95.6595C306.969 97.569 304.32 98.4454 299.229 98.4454H234.683L209.926 20.9283C208.209 15.552 205.754 10.9875 202.639 7.94624C197.294 2.73029 190.994 0 181.054 0C171.113 0 164.813 2.73029 159.469 7.94534C156.354 10.9875 153.9 15.5511 152.183 20.9274L119.222 124.133H146.23L176.405 29.655C176.738 28.612 177.052 27.7267 177.536 27.1362C178.365 26.1263 179.513 25.5959 181.055 25.5959C182.598 25.5959 183.745 26.1263 184.575 27.1362C185.058 27.7258 185.373 28.6111 185.705 29.655L215.88 124.133H294.448V124.134Z" fill="#F8F9FA"/>
</svg>
