<svg width="47" height="915" viewBox="0 0 47 915" fill="none" xmlns="http://www.w3.org/2000/svg">
<path d="M46 914.28L46 883.624L40.432 883.624L40.432 907.88L1.2 907.88L1.2 914.28L46 914.28ZM46 841.66L46 834.94L1.19999 855.292L1.19999 861.628L46 881.916L46 875.324L34.8 870.396L34.8 846.588L46 841.66ZM29.68 868.156L7.72799 858.492L29.68 848.828L29.68 868.156ZM46.512 809.675C46.512 797.835 39.664 790.731 26.672 790.731L1.19999 790.731L1.19999 796.939L26.416 796.939C36.336 796.939 40.816 801.547 40.816 809.611C40.816 817.675 36.336 822.219 26.416 822.219L1.19999 822.219L1.19999 828.619L26.672 828.619C39.664 828.619 46.512 821.451 46.512 809.675ZM1.19999 744.522L34.608 744.522L1.19999 771.402L1.19999 776.65L46 776.65L46 770.25L12.592 770.25L46 743.37L46 738.122L1.19999 738.122L1.19999 744.522ZM46.512 703.721C46.512 696.745 44.08 690.728 39.472 686.632L35.44 690.793C39.088 694.248 40.816 698.473 40.816 703.401C40.816 713.513 33.52 721.001 23.6 721.001C13.68 721.001 6.38399 713.513 6.38399 703.401C6.38399 698.473 8.04799 694.249 11.696 690.793L7.66399 686.632C3.05599 690.729 0.68799 696.745 0.68799 703.657C0.687991 717.289 10.352 727.401 23.6 727.401C36.848 727.401 46.512 717.289 46.512 703.721ZM1.19998 644.414L20.464 644.414L20.464 670.142L1.19999 670.142L1.19999 676.542L46 676.542L46 670.142L26.032 670.142L26.032 644.414L46 644.414L46 638.014L1.19998 638.014L1.19998 644.414ZM40.432 617.245L25.968 617.245L25.968 594.781L20.528 594.781L20.528 617.245L6.76798 617.245L6.76798 592.029L1.19998 592.029L1.19998 623.645L46 623.645L46 591.133L40.432 591.133L40.432 617.245ZM46.512 566.754C46.512 554.914 40.624 549.41 33.776 549.41C17.328 549.41 24.176 576.546 13.232 576.546C9.32798 576.546 6.12798 573.282 6.12798 565.666C6.12798 561.698 7.27998 557.282 9.77598 553.378L4.65598 551.266C2.09598 554.978 0.687984 560.418 0.687984 565.666C0.687985 577.442 6.57598 582.818 13.488 582.818C30.128 582.818 23.216 555.682 34.16 555.682C38.064 555.682 41.072 559.01 41.072 566.754C41.072 572.514 38.896 578.21 35.888 581.538L40.88 583.906C44.208 580.322 46.512 573.602 46.512 566.754ZM46 487.48L46 480.76L1.19998 501.112L1.19998 507.448L46 527.736L46 521.144L34.8 516.216L34.8 492.408L46 487.48ZM29.68 513.976L7.72798 504.312L29.68 494.648L29.68 513.976ZM1.19998 440.989L34.608 440.989L1.19998 467.869L1.19998 473.117L46 473.117L46 466.717L12.592 466.717L46 439.837L46 434.589L1.19998 434.589L1.19998 440.989ZM46 420.22L46 401.34C46 386.94 36.912 377.148 23.6 377.148C10.288 377.148 1.19997 386.94 1.19997 401.34L1.19998 420.22L46 420.22ZM40.432 413.82L6.76798 413.82L6.76798 401.724C6.76797 390.652 13.552 383.548 23.6 383.548C33.648 383.548 40.432 390.652 40.432 401.724L40.432 413.82ZM46 348.238L46 317.582L40.432 317.582L40.432 341.838L1.19997 341.838L1.19997 348.238L46 348.238ZM46 275.618L46 268.898L1.19997 289.25L1.19997 295.586L46 315.874L46 309.282L34.8 304.354L34.8 280.546L46 275.618ZM29.68 302.114L7.72797 292.45L29.68 282.786L29.68 302.114ZM1.19997 229.127L34.608 229.127L1.19997 256.007L1.19997 261.255L46 261.255L46 254.855L12.592 254.855L46 227.975L46 222.727L1.19997 222.727L1.19997 229.127ZM46 208.358L46 189.478C46 175.078 36.912 165.286 23.6 165.286C10.288 165.286 1.19996 175.078 1.19996 189.478L1.19997 208.358L46 208.358ZM40.432 201.958L6.76797 201.958L6.76797 189.862C6.76797 178.79 13.552 171.686 23.6 171.686C33.648 171.686 40.432 178.79 40.432 189.862L40.432 201.958ZM46 154.522L46 148.122L1.19996 148.122L1.19996 154.522L46 154.522ZM1.19996 101.622L34.608 101.622L1.19996 128.502L1.19996 133.75L46 133.75L46 127.35L12.592 127.35L46 100.47L46 95.222L1.19996 95.222L1.19996 101.622ZM37.936 49.8125C39.984 53.0125 40.816 56.5325 40.816 60.3085C40.816 70.6125 33.456 78.1005 23.6 78.1005C13.616 78.1005 6.38396 70.6125 6.38396 60.2445C6.38396 55.1885 7.98396 50.9645 11.568 47.2525L7.59996 43.2845C3.05596 47.3805 0.687962 53.3965 0.687962 60.5005C0.687963 74.3885 10.352 84.5005 23.6 84.5005C36.848 84.5005 46.512 74.3885 46.512 60.6285C46.512 54.3565 44.592 48.1485 40.816 43.6685L23.344 43.6685L23.344 49.8125L37.936 49.8125ZM46.512 17.399C46.512 5.55898 40.624 0.0549832 33.776 0.0549835C17.328 0.0549842 24.176 27.191 13.232 27.191C9.32796 27.191 6.12796 23.927 6.12796 16.311C6.12796 12.343 7.27996 7.92699 9.77596 4.02299L4.65596 1.91099C2.09596 5.62299 0.68796 11.063 0.68796 16.311C0.687961 28.087 6.57596 33.463 13.488 33.463C30.128 33.463 23.216 6.32699 34.16 6.32698C38.064 6.32698 41.072 9.65499 41.072 17.399C41.072 23.159 38.896 28.855 35.888 32.183L40.88 34.551C44.208 30.967 46.512 24.247 46.512 17.399Z" fill="#F8F9FA"/>
</svg>
