<svg width="79" height="64" viewBox="0 0 79 64" fill="none" xmlns="http://www.w3.org/2000/svg">
<path d="M36.7196 63.3976C54.5717 63.3976 69.0437 49.2056 69.0437 31.6988C69.0437 14.192 54.5717 0 36.7196 0C18.8675 0 4.39551 14.192 4.39551 31.6988C4.39551 49.2056 18.8675 63.3976 36.7196 63.3976Z" fill="#0B3D91"/>
<path d="M34.8087 6.44511C35.0088 6.44511 35.171 6.28601 35.171 6.08974C35.171 5.89348 35.0088 5.73438 34.8087 5.73438C34.6085 5.73438 34.4463 5.89348 34.4463 6.08974C34.4463 6.28601 34.6085 6.44511 34.8087 6.44511Z" fill="#F8F9FA"/>
<path d="M38.5352 6.91825C38.7354 6.91825 38.8976 6.75915 38.8976 6.56289C38.8976 6.36662 38.7354 6.20752 38.5352 6.20752C38.3351 6.20752 38.1729 6.36662 38.1729 6.56289C38.1729 6.75915 38.3351 6.91825 38.5352 6.91825Z" fill="#F8F9FA"/>
<path d="M43.4102 13.3626C43.6104 13.3626 43.7726 13.2035 43.7726 13.0072C43.7726 12.811 43.6104 12.6519 43.4102 12.6519C43.2101 12.6519 43.0479 12.811 43.0479 13.0072C43.0479 13.2035 43.2101 13.3626 43.4102 13.3626Z" fill="#F8F9FA"/>
<path d="M16.6417 46.531C16.8418 46.531 17.004 46.3719 17.004 46.1757C17.004 45.9794 16.8418 45.8203 16.6417 45.8203C16.4415 45.8203 16.2793 45.9794 16.2793 46.1757C16.2793 46.3719 16.4415 46.531 16.6417 46.531Z" fill="#F8F9FA"/>
<path d="M17.5909 49.3728C17.791 49.3728 17.9533 49.2137 17.9533 49.0175C17.9533 48.8212 17.791 48.6621 17.5909 48.6621C17.3908 48.6621 17.2285 48.8212 17.2285 49.0175C17.2285 49.2137 17.3908 49.3728 17.5909 49.3728Z" fill="#F8F9FA"/>
<path d="M13.0936 46.8687C13.2435 46.8687 13.365 46.7495 13.365 46.6026C13.365 46.4556 13.2435 46.3364 13.0936 46.3364C12.9438 46.3364 12.8223 46.4556 12.8223 46.6026C12.8223 46.7495 12.9438 46.8687 13.0936 46.8687Z" fill="#F8F9FA"/>
<path d="M27.8318 52.4538C27.9821 52.4538 28.1039 52.3343 28.1039 52.1868C28.1039 52.0394 27.9821 51.9199 27.8318 51.9199C27.6814 51.9199 27.5596 52.0394 27.5596 52.1868C27.5596 52.3343 27.6814 52.4538 27.8318 52.4538Z" fill="#F8F9FA"/>
<path d="M50.9442 47.7452C51.0941 47.7452 51.2156 47.626 51.2156 47.479C51.2156 47.332 51.0941 47.2129 50.9442 47.2129C50.7944 47.2129 50.6729 47.332 50.6729 47.479C50.6729 47.626 50.7944 47.7452 50.9442 47.7452Z" fill="#F8F9FA"/>
<path d="M57.6628 40.59C57.8131 40.59 57.935 40.4705 57.935 40.3231C57.935 40.1757 57.8131 40.0562 57.6628 40.0562C57.5125 40.0562 57.3906 40.1757 57.3906 40.3231C57.3906 40.4705 57.5125 40.59 57.6628 40.59Z" fill="#F8F9FA"/>
<path d="M24.7392 15.3516C24.889 15.3516 25.0105 15.2324 25.0105 15.0855C25.0105 14.9385 24.889 14.8193 24.7392 14.8193C24.5893 14.8193 24.4678 14.9385 24.4678 15.0855C24.4678 15.2324 24.5893 15.3516 24.7392 15.3516Z" fill="#F8F9FA"/>
<path d="M32.1308 10.0279C32.2806 10.0279 32.4021 9.90872 32.4021 9.76174C32.4021 9.61476 32.2806 9.49561 32.1308 9.49561C31.9809 9.49561 31.8594 9.61476 31.8594 9.76174C31.8594 9.90872 31.9809 10.0279 32.1308 10.0279Z" fill="#F8F9FA"/>
<path d="M31.331 9.50589C31.4808 9.50589 31.6023 9.38674 31.6023 9.23976C31.6023 9.09278 31.4808 8.97363 31.331 8.97363C31.1811 8.97363 31.0596 9.09278 31.0596 9.23976C31.0596 9.38674 31.1811 9.50589 31.331 9.50589Z" fill="#F8F9FA"/>
<path d="M30.6024 8.98636C30.7523 8.98636 30.8738 8.86721 30.8738 8.72023C30.8738 8.57325 30.7523 8.4541 30.6024 8.4541C30.4526 8.4541 30.3311 8.57325 30.3311 8.72023C30.3311 8.86721 30.4526 8.98636 30.6024 8.98636Z" fill="#F8F9FA"/>
<path d="M25.8944 16.7266C26.0443 16.7266 26.1658 16.6074 26.1658 16.4605C26.1658 16.3135 26.0443 16.1943 25.8944 16.1943C25.7446 16.1943 25.623 16.3135 25.623 16.4605C25.623 16.6074 25.7446 16.7266 25.8944 16.7266Z" fill="#F8F9FA"/>
<path d="M36.786 2.87308C36.9359 2.87308 37.0574 2.75393 37.0574 2.60695C37.0574 2.45997 36.9359 2.34082 36.786 2.34082C36.6362 2.34082 36.5146 2.45997 36.5146 2.60695C36.5146 2.75393 36.6362 2.87308 36.786 2.87308Z" fill="#F8F9FA"/>
<path d="M38.577 10.5503C38.7269 10.5503 38.8484 10.4312 38.8484 10.2842C38.8484 10.1372 38.7269 10.0181 38.577 10.0181C38.4272 10.0181 38.3057 10.1372 38.3057 10.2842C38.3057 10.4312 38.4272 10.5503 38.577 10.5503Z" fill="#F8F9FA"/>
<path d="M35.7538 9.05033C35.9037 9.05033 36.0252 8.93118 36.0252 8.7842C36.0252 8.63722 35.9037 8.51807 35.7538 8.51807C35.6039 8.51807 35.4824 8.63722 35.4824 8.7842C35.4824 8.93118 35.6039 9.05033 35.7538 9.05033Z" fill="#F8F9FA"/>
<path d="M30.9227 11.0884C31.0726 11.0884 31.1941 10.9693 31.1941 10.8223C31.1941 10.6753 31.0726 10.5562 30.9227 10.5562C30.7729 10.5562 30.6514 10.6753 30.6514 10.8223C30.6514 10.9693 30.7729 11.0884 30.9227 11.0884Z" fill="#F8F9FA"/>
<path d="M52.2323 54.774C52.3822 54.774 52.5037 54.6548 52.5037 54.5078C52.5037 54.3609 52.3822 54.2417 52.2323 54.2417C52.0824 54.2417 51.9609 54.3609 51.9609 54.5078C51.9609 54.6548 52.0824 54.774 52.2323 54.774Z" fill="#F8F9FA"/>
<path d="M16.1862 48.2433C16.3366 48.2433 16.4584 48.1238 16.4584 47.9764C16.4584 47.829 16.3366 47.7095 16.1862 47.7095C16.0359 47.7095 15.9141 47.829 15.9141 47.9764C15.9141 48.1238 16.0359 48.2433 16.1862 48.2433Z" fill="#F8F9FA"/>
<path d="M35.0808 51.6784C35.2311 51.6784 35.353 51.5589 35.353 51.4114C35.353 51.264 35.2311 51.1445 35.0808 51.1445C34.9305 51.1445 34.8086 51.264 34.8086 51.4114C34.8086 51.5589 34.9305 51.6784 35.0808 51.6784Z" fill="#F8F9FA"/>
<path d="M21.8064 48.0285C21.9567 48.0285 22.0786 47.909 22.0786 47.7615C22.0786 47.6141 21.9567 47.4946 21.8064 47.4946C21.656 47.4946 21.5342 47.6141 21.5342 47.7615C21.5342 47.909 21.656 48.0285 21.8064 48.0285Z" fill="#F8F9FA"/>
<path d="M24.1579 51.7897C24.3083 51.7897 24.4301 51.6702 24.4301 51.5228C24.4301 51.3754 24.3083 51.2559 24.1579 51.2559C24.0076 51.2559 23.8857 51.3754 23.8857 51.5228C23.8857 51.6702 24.0076 51.7897 24.1579 51.7897Z" fill="#F8F9FA"/>
<path d="M41.455 49.4209C41.6049 49.4209 41.7264 49.3018 41.7264 49.1548C41.7264 49.0078 41.6049 48.8887 41.455 48.8887C41.3051 48.8887 41.1836 49.0078 41.1836 49.1548C41.1836 49.3018 41.3051 49.4209 41.455 49.4209Z" fill="#F8F9FA"/>
<path d="M50.9931 44.1431C51.1429 44.1431 51.2644 44.024 51.2644 43.877C51.2644 43.73 51.1429 43.6108 50.9931 43.6108C50.8432 43.6108 50.7217 43.73 50.7217 43.877C50.7217 44.024 50.8432 44.1431 50.9931 44.1431Z" fill="#F8F9FA"/>
<path d="M58.2186 47.3833C58.3685 47.3833 58.49 47.2642 58.49 47.1172C58.49 46.9702 58.3685 46.8511 58.2186 46.8511C58.0688 46.8511 57.9473 46.9702 57.9473 47.1172C57.9473 47.2642 58.0688 47.3833 58.2186 47.3833Z" fill="#F8F9FA"/>
<path d="M60.6893 48.9287C60.8392 48.9287 60.9607 48.8096 60.9607 48.6626C60.9607 48.5156 60.8392 48.3965 60.6893 48.3965C60.5395 48.3965 60.418 48.5156 60.418 48.6626C60.418 48.8096 60.5395 48.9287 60.6893 48.9287Z" fill="#F8F9FA"/>
<path d="M61.0907 44.7124C61.2406 44.7124 61.3621 44.5933 61.3621 44.4463C61.3621 44.2993 61.2406 44.1802 61.0907 44.1802C60.9408 44.1802 60.8193 44.2993 60.8193 44.4463C60.8193 44.5933 60.9408 44.7124 61.0907 44.7124Z" fill="#F8F9FA"/>
<path d="M25.1405 38.7408C25.2904 38.7408 25.4119 38.6216 25.4119 38.4746C25.4119 38.3276 25.2904 38.2085 25.1405 38.2085C24.9906 38.2085 24.8691 38.3276 24.8691 38.4746C24.8691 38.6216 24.9906 38.7408 25.1405 38.7408Z" fill="#F8F9FA"/>
<path d="M25.2442 44.9432C25.4444 44.9432 25.6066 44.7841 25.6066 44.5878C25.6066 44.3915 25.4444 44.2324 25.2442 44.2324C25.0441 44.2324 24.8818 44.3915 24.8818 44.5878C24.8818 44.7841 25.0441 44.9432 25.2442 44.9432Z" fill="#F8F9FA"/>
<path d="M27.42 49.4427C27.6201 49.4427 27.7824 49.2836 27.7824 49.0873C27.7824 48.891 27.6201 48.7319 27.42 48.7319C27.2199 48.7319 27.0576 48.891 27.0576 49.0873C27.0576 49.2836 27.2199 49.4427 27.42 49.4427Z" fill="#F8F9FA"/>
<path d="M53.4639 44.7532C53.6641 44.7532 53.8263 44.5941 53.8263 44.3978C53.8263 44.2016 53.6641 44.0425 53.4639 44.0425C53.2638 44.0425 53.1016 44.2016 53.1016 44.3978C53.1016 44.5941 53.2638 44.7532 53.4639 44.7532Z" fill="#F8F9FA"/>
<path d="M62.8331 44.2312C63.0332 44.2312 63.1955 44.0721 63.1955 43.8759C63.1955 43.6796 63.0332 43.5205 62.8331 43.5205C62.6329 43.5205 62.4707 43.6796 62.4707 43.8759C62.4707 44.0721 62.6329 44.2312 62.8331 44.2312Z" fill="#F8F9FA"/>
<path d="M58.2003 42.2889C58.4004 42.2889 58.5626 42.1298 58.5626 41.9335C58.5626 41.7372 58.4004 41.5781 58.2003 41.5781C58.0001 41.5781 57.8379 41.7372 57.8379 41.9335C57.8379 42.1298 58.0001 42.2889 58.2003 42.2889Z" fill="#F8F9FA"/>
<path d="M53.4639 42.4798C53.6641 42.4798 53.8263 42.3207 53.8263 42.1244C53.8263 41.9281 53.6641 41.769 53.4639 41.769C53.2638 41.769 53.1016 41.9281 53.1016 42.1244C53.1016 42.3207 53.2638 42.4798 53.4639 42.4798Z" fill="#F8F9FA"/>
<path d="M43.6973 5.86503L44.5984 5.78054L43.6989 5.73078C43.6707 5.56021 43.5314 5.42675 43.3558 5.40464L43.2697 4.5249L43.2181 5.41174C43.0555 5.44728 42.9306 5.58074 42.9105 5.74658L41.9893 5.82871L42.9169 5.87767C42.9508 6.03008 43.0764 6.14933 43.2342 6.17776L43.318 7.08434L43.3671 6.17934C43.5338 6.1517 43.6659 6.02613 43.6973 5.86503Z" fill="#F8F9FA"/>
<path d="M28.4873 15.7059L29.3884 15.6214L28.4889 15.5716C28.4615 15.401 28.3214 15.2676 28.1459 15.2455L28.0597 14.3657L28.009 15.2526C27.8455 15.2881 27.7207 15.4216 27.7005 15.5874L26.7793 15.6695L27.707 15.7185C27.7408 15.8709 27.8664 15.9902 28.0243 16.0186L28.108 16.9252L28.1579 16.0202C28.3246 15.9933 28.4567 15.867 28.4873 15.7059Z" fill="#F8F9FA"/>
<path d="M62.174 41.7171L63.0751 41.6326L62.1756 41.5828C62.1482 41.4123 62.0081 41.2788 61.8326 41.2567L61.7464 40.377L61.6957 41.2638C61.533 41.2993 61.4082 41.4328 61.388 41.5986L60.4668 41.6808L61.3945 41.7297C61.4283 41.8821 61.5539 42.0014 61.7118 42.0298L61.7955 42.9364L61.8454 42.0314C62.0105 42.0045 62.1426 41.879 62.174 41.7171Z" fill="#F8F9FA"/>
<path d="M25.4443 55.3164L26.3454 55.2319L25.4459 55.1821C25.4178 55.0116 25.2784 54.8781 25.1029 54.856L25.0167 53.9771L24.966 54.8631C24.8025 54.8986 24.6777 55.0321 24.6576 55.1979L23.7363 55.2801L24.664 55.329C24.6978 55.4814 24.8235 55.6015 24.9813 55.6291L25.065 56.5357L25.115 55.6307C25.2809 55.6038 25.4137 55.4775 25.4443 55.3164Z" fill="#F8F9FA"/>
<path d="M59.3146 48.6844L60.2157 48.5999L59.3162 48.5501C59.2889 48.3795 59.1487 48.2461 58.9732 48.224L58.887 47.3442L58.8363 48.2303C58.6736 48.2658 58.5488 48.3993 58.5287 48.5651L57.6074 48.6473L58.5351 48.6962C58.5689 48.8486 58.6946 48.9679 58.8524 48.9963L58.9361 49.9029L58.9861 48.9979C59.1512 48.9718 59.284 48.8455 59.3146 48.6844Z" fill="#F8F9FA"/>
<path d="M44.3873 24.1055C40.629 25.538 36.9634 26.8166 33.8703 27.7658C27.585 29.6958 10.3882 34.9205 0 41.5067L0.869707 41.8384C7.19924 38.3321 11.3134 37.2304 15.2682 36.0103C19.5684 34.6836 33.47 31.4932 39.7649 29.7558C41.8917 29.1691 44.3824 28.4007 47.0205 27.4657C46.4069 26.6262 45.7595 25.7844 45.0782 24.9442C44.8503 24.6607 44.6192 24.3811 44.3873 24.1055ZM48.979 30.3118C48.069 30.9143 47.3064 31.3953 46.7725 31.6985C43.6802 33.4517 28.6045 43.5441 25.1748 45.8659C21.7451 48.1876 12.2258 57.0007 9.42344 59.5594L9.3268 60.601C18.3621 52.6407 21.1967 50.6775 24.7883 47.9981C29.2334 44.6813 38.429 38.5453 41.5543 36.5789C44.5419 34.6994 47.2364 32.9707 49.6546 31.389C49.6152 31.3242 49.5757 31.2594 49.5363 31.1939C49.3543 30.9009 49.1682 30.6072 48.979 30.3118ZM63.1029 15.6833C58.7012 18.2135 51.7637 21.2673 45.0331 23.8583C45.1942 24.0518 45.3544 24.2469 45.5139 24.4435C46.266 25.3722 46.9755 26.3072 47.643 27.243C52.9338 25.3319 58.739 22.7669 63.3453 19.6626C61.1509 21.7016 53.8961 27.0187 49.4726 29.9825C49.7005 30.3465 49.9212 30.7106 50.1346 31.0731C56.8362 26.6752 61.3458 23.4382 63.9734 21.2736C67.5972 18.2885 75.8594 11.6076 79 2.65234C73.4911 9.52358 66.9779 13.4555 63.1029 15.6833Z" fill="#DD4B4E"/>
<path d="M32.5573 39.5467C31.8446 38.667 30.8589 37.4888 30.1189 36.5751C29.1292 35.3534 28.2136 34.1191 27.3745 32.8864C27.1007 32.9535 26.8277 33.0206 26.5547 33.0877C27.5677 34.6379 28.6927 36.1858 29.9184 37.6988C30.8138 38.8044 31.628 39.6944 32.0451 40.248C32.1297 40.3601 32.2972 40.6081 32.5235 40.9382C32.7844 40.7645 33.0477 40.5892 33.3134 40.4123C33.0566 40.1382 32.8029 39.85 32.5573 39.5467ZM37.7594 44.1776C37.174 43.6343 35.7543 42.7269 34.2766 41.3654C33.9504 41.585 33.6211 41.8077 33.2909 42.032C34.2452 43.3508 35.5449 44.9705 36.5628 45.4427C38.096 46.155 38.5091 44.8741 37.7594 44.1776ZM45.5087 24.4428C37.0596 14.014 26.7383 8.28466 22.2883 11.7523C18.832 14.4452 20.2509 22.3154 25.015 30.5828C25.2614 30.4999 25.5054 30.4185 25.747 30.338C20.9386 22.283 19.6228 14.7974 22.8826 12.2569C26.9791 9.06489 36.8704 14.8163 45.0746 24.9427C46.773 27.0386 48.266 29.1424 49.5303 31.1932C54.3716 39.0508 55.8574 46.1566 52.5122 49.0572C51.4887 49.9448 48.361 50.2931 44.2637 48.4846C44.2065 48.5549 44.2983 48.7453 44.37 48.7918C47.9068 50.1865 51.2946 50.7179 53.0051 49.3857C57.1152 46.1827 53.9577 34.8717 45.5087 24.4428Z" fill="#F8F9FA"/>
<path d="M9.27344 25.6816H14.6849L19.2268 33.2391C19.2268 33.2391 19.2268 27.7665 19.2268 27.34C19.2268 26.6767 18.3691 25.8119 18.0671 25.6816C18.4295 25.6816 21.5943 25.6816 21.8117 25.6816C21.5822 25.7409 20.8454 26.6174 20.8454 27.34C20.8454 27.6954 20.8454 35.6319 20.8454 36.011C20.8454 36.544 21.6305 37.2785 22.005 37.5628H16.7867L12.1725 29.9697C12.1725 29.9697 12.1725 35.6319 12.1725 35.9399C12.1725 36.5322 12.7643 37.1008 13.3804 37.5865H9.39423C9.96196 37.3495 10.5055 36.6033 10.5538 36.011C10.6022 35.4187 10.5538 27.7783 10.5538 27.4466C10.5538 26.7241 9.84116 26.1318 9.27344 25.6816Z" fill="#F8F9FA"/>
<path d="M58.7754 37.5628H65.9746C65.576 37.468 65.129 37.006 64.8875 36.3901C64.6459 35.7741 60.8288 25.6816 60.8288 25.6816H58.0917C57.3154 26.2297 56.4835 26.8078 55.5953 27.4166C55.5929 27.4387 55.5905 27.4608 55.5864 27.4822C55.4672 28.1929 53.3252 35.8009 53.1947 36.1768C53.0135 36.698 52.0834 37.2785 51.709 37.5865H55.5864C55.1999 37.16 54.8858 36.7454 54.9583 36.2716C55.0308 35.7978 55.2482 34.8501 55.2482 34.8501H59.2585C59.4397 35.324 59.575 35.7496 59.6451 36.1531C59.7296 36.6388 59.2223 37.1837 58.7754 37.5628ZM55.6106 33.3339L56.9635 28.9984L58.7512 33.3339H55.6106ZM55.001 26.1144C55.1999 25.9707 55.3996 25.8262 55.5985 25.6816H54.5476C54.6523 25.7764 54.8254 25.9257 55.001 26.1144Z" fill="#F8F9FA"/>
<path d="M27.4642 36.2716C27.5366 35.7978 27.7541 34.8501 27.7541 34.8501H31.7644C31.9456 35.324 32.0809 35.7496 32.1509 36.1531C32.2355 36.6388 31.7281 37.1837 31.2812 37.5628H37.6196C37.7517 37.4759 37.8829 37.389 38.0142 37.303C37.7686 37.0897 37.5423 36.7699 37.3933 36.3901C37.1517 35.7741 33.3347 25.6816 33.3347 25.6816H27.0535C27.3555 25.9541 28.2252 26.6885 28.0923 27.4822C27.9739 28.1929 25.8311 35.8009 25.7006 36.1768C25.5194 36.698 24.5893 37.2785 24.2148 37.5865H28.0923C27.7058 37.16 27.3917 36.7454 27.4642 36.2716ZM29.4693 28.9984L31.2571 33.3339H28.1164L29.4693 28.9984Z" fill="#F8F9FA"/>
<path d="M49.3603 31.5798C48.1781 32.3521 46.9307 33.1584 45.6165 34.0002C46.206 34.2806 46.6755 34.6328 46.7206 35.0877C46.8043 35.9421 45.0536 36.3551 43.4712 36.1774C43.1548 36.1419 42.8439 36.0606 42.5476 35.9516C42.219 36.1593 41.8872 36.3686 41.5506 36.5802C41.2084 36.7958 40.7929 37.0611 40.3185 37.3675V38.5939C40.6326 37.9898 41.3195 37.4489 41.8526 37.4212C42.0821 37.4094 42.8793 38.132 46.1649 37.9543C47.7594 37.8682 50.8396 36.2011 50.7913 34.2822C50.7623 33.1481 50.1583 32.2637 49.3603 31.5798ZM40.3177 34.5428V35.7921C40.6084 35.6018 40.8951 35.4146 41.1762 35.2322C40.7341 34.9305 40.4208 34.6486 40.3177 34.5428ZM48.2369 30.7956C47.9309 30.6179 47.6209 30.4623 47.3237 30.3249C45.7776 29.6142 44.1589 29.4839 43.8207 28.5244C43.5824 27.8476 44.2556 27.2214 45.8984 27.2451C47.5411 27.2688 49.0631 28.2283 49.4738 28.5718V25.5156C49.353 25.6341 48.8231 26.2303 48.3384 26.1316C47.4083 25.9421 45.8259 25.6949 44.014 25.7052C41.9364 25.717 40.1486 27.2917 40.0882 29.2825C40.0037 32.0662 42.2746 32.8244 43.555 33.2626C43.687 33.3077 43.8376 33.3558 44.0011 33.4072C45.2292 32.6238 46.2003 32.0204 46.7689 31.699C47.1506 31.4834 47.6507 31.1739 48.2369 30.7956Z" fill="#F8F9FA"/>
</svg>
